<mxfile host="app.diagrams.net" agent="Mozilla/5.0 (Windows NT 10.0; Win64; x64) AppleWebKit/537.36 (KHTML, like Gecko) Chrome/130.0.0.0 Safari/537.36" version="24.8.4">
  <diagram id="C5RBs43oDa-KdzZeNtuy" name="Page-1">
    <mxGraphModel dx="1434" dy="746" grid="1" gridSize="10" guides="1" tooltips="1" connect="1" arrows="1" fold="1" page="1" pageScale="1" pageWidth="827" pageHeight="1169" math="0" shadow="0">
      <root>
        <mxCell id="WIyWlLk6GJQsqaUBKTNV-0" />
        <mxCell id="WIyWlLk6GJQsqaUBKTNV-1" parent="WIyWlLk6GJQsqaUBKTNV-0" />
        <mxCell id="wUEyeccG8EV7afxbqpZ7-2" style="edgeStyle=orthogonalEdgeStyle;rounded=0;orthogonalLoop=1;jettySize=auto;html=1;exitX=0.5;exitY=1;exitDx=0;exitDy=0;" edge="1" parent="WIyWlLk6GJQsqaUBKTNV-1" source="wUEyeccG8EV7afxbqpZ7-0" target="wUEyeccG8EV7afxbqpZ7-1">
          <mxGeometry relative="1" as="geometry" />
        </mxCell>
        <mxCell id="wUEyeccG8EV7afxbqpZ7-0" value="Inicio" style="ellipse;whiteSpace=wrap;html=1;aspect=fixed;" vertex="1" parent="WIyWlLk6GJQsqaUBKTNV-1">
          <mxGeometry x="360" y="20" width="80" height="80" as="geometry" />
        </mxCell>
        <mxCell id="wUEyeccG8EV7afxbqpZ7-6" value="" style="edgeStyle=orthogonalEdgeStyle;rounded=0;orthogonalLoop=1;jettySize=auto;html=1;" edge="1" parent="WIyWlLk6GJQsqaUBKTNV-1" source="wUEyeccG8EV7afxbqpZ7-1" target="wUEyeccG8EV7afxbqpZ7-5">
          <mxGeometry relative="1" as="geometry" />
        </mxCell>
        <mxCell id="wUEyeccG8EV7afxbqpZ7-1" value="&lt;div&gt;&amp;nbsp; &amp;nbsp; Mostrar mensaje: &quot;Por favor, ingrese el radio del círculo: &quot;&lt;/div&gt;" style="shape=parallelogram;perimeter=parallelogramPerimeter;whiteSpace=wrap;html=1;fixedSize=1;" vertex="1" parent="WIyWlLk6GJQsqaUBKTNV-1">
          <mxGeometry x="340" y="140" width="120" height="60" as="geometry" />
        </mxCell>
        <mxCell id="wUEyeccG8EV7afxbqpZ7-8" value="" style="edgeStyle=orthogonalEdgeStyle;rounded=0;orthogonalLoop=1;jettySize=auto;html=1;" edge="1" parent="WIyWlLk6GJQsqaUBKTNV-1" source="wUEyeccG8EV7afxbqpZ7-5" target="wUEyeccG8EV7afxbqpZ7-7">
          <mxGeometry relative="1" as="geometry" />
        </mxCell>
        <mxCell id="wUEyeccG8EV7afxbqpZ7-5" value="Definir y asignar a la variable area el resultado de pi * radio al cuadrado" style="rounded=1;whiteSpace=wrap;html=1;" vertex="1" parent="WIyWlLk6GJQsqaUBKTNV-1">
          <mxGeometry x="340" y="240" width="120" height="60" as="geometry" />
        </mxCell>
        <mxCell id="wUEyeccG8EV7afxbqpZ7-10" value="" style="edgeStyle=orthogonalEdgeStyle;rounded=0;orthogonalLoop=1;jettySize=auto;html=1;" edge="1" parent="WIyWlLk6GJQsqaUBKTNV-1" source="wUEyeccG8EV7afxbqpZ7-7" target="wUEyeccG8EV7afxbqpZ7-9">
          <mxGeometry relative="1" as="geometry" />
        </mxCell>
        <mxCell id="wUEyeccG8EV7afxbqpZ7-7" value="Mostrar mensaje &quot;El área del círculo con radio&quot;, radio, &quot;es: &quot;, area" style="shape=parallelogram;perimeter=parallelogramPerimeter;whiteSpace=wrap;html=1;fixedSize=1;rounded=1;" vertex="1" parent="WIyWlLk6GJQsqaUBKTNV-1">
          <mxGeometry x="340" y="350" width="120" height="60" as="geometry" />
        </mxCell>
        <mxCell id="wUEyeccG8EV7afxbqpZ7-9" value="Fin" style="ellipse;whiteSpace=wrap;html=1;rounded=1;" vertex="1" parent="WIyWlLk6GJQsqaUBKTNV-1">
          <mxGeometry x="360" y="450" width="80" height="80" as="geometry" />
        </mxCell>
      </root>
    </mxGraphModel>
  </diagram>
</mxfile>
